HIERARCHY
ROOT Hips
{
	OFFSET 0.000000 0.000000 0.000000
	CHANNELS 6 Xposition Yposition Zposition Zrotation Yrotation Xrotation 
	JOINT LHipJoint
	{
		OFFSET 0.000000 0.000000 0.000000
		CHANNELS 3 Zrotation Yrotation Xrotation
		JOINT LeftUpLeg
		{
			OFFSET 1.363060 -1.794630 0.839290
			CHANNELS 3 Zrotation Yrotation Xrotation
			JOINT LeftLeg
			{
				OFFSET 2.448110 -6.726130 0.000000
				CHANNELS 3 Zrotation Yrotation Xrotation
				JOINT LeftFoot
				{
					OFFSET 2.562200 -7.039590 0.000000
					CHANNELS 3 Zrotation Yrotation Xrotation
					JOINT LeftToeBase
					{
						OFFSET 0.157640 -0.433110 2.322550
						CHANNELS 3 Zrotation Yrotation Xrotation
						End Site
						{
							OFFSET 0.000000 0.000000 0.000000
						}
					}
				}
			}
		}
	}
	JOINT RHipJoint
	{
		OFFSET 0.000000 0.000000 0.000000
		CHANNELS 3 Zrotation Yrotation Xrotation
		JOINT RightUpLeg
		{
			OFFSET -1.305520 -1.794630 0.839290
			CHANNELS 3 Zrotation Yrotation Xrotation
			JOINT RightLeg
			{
				OFFSET -2.542530 -6.985550 0.000000
				CHANNELS 3 Zrotation Yrotation Xrotation
				JOINT RightFoot
				{
					OFFSET -2.568260 -7.056230 0.000000
					CHANNELS 3 Zrotation Yrotation Xrotation
					JOINT RightToeBase
					{
						OFFSET -0.164730 -0.452590 2.363150
						CHANNELS 3 Zrotation Yrotation Xrotation
						End Site
						{
							OFFSET 0.000000 0.000000 0.000000
						}
					}
				}
			}
		}
	}
}
MOTION
Frames: 28
Frame Time: 0.008333
5.281387 17.426606 0.567511 2.462646 -74.837302 6.951323 -10.901905 1.810110 1.829496 -5.850233 9.169611 -12.349223 -2.701673 -1.278728 -4.073364 -0.353436 -2.037133 7.183654 -0.091500 -0.000000 -31.468399 9.562031 -2.371071 1.359346 7.325781 -7.117905 -6.535043 2.039618 1.470185 -2.824143 -1.324606 -10.719091 -2.203547 -2.462600 0.000000 -27.116600
5.284643 17.423272 0.577095 2.381958 -75.019538 6.897628 -10.919289 1.815408 1.793744 -5.807662 9.226539 -12.151703 -2.684632 -1.269745 -4.062712 -0.338754 -1.925191 7.064224 -0.066900 0.000000 -31.496600 9.548416 -2.363130 1.334268 7.292508 -7.062579 -6.327667 2.035833 1.468311 -2.880740 -1.338559 -10.703474 -2.167905 -2.444300 -0.000001 -27.165600
5.287641 17.420724 0.587785 2.322641 -75.232255 6.844885 -10.935769 1.823484 1.762121 -5.784989 9.307923 -11.984213 -2.671563 -1.263281 -4.060010 -0.324991 -1.816542 6.956248 -0.043200 -0.000000 -31.508800 9.537068 -2.357389 1.320721 7.251252 -7.008183 -6.159534 2.035074 1.468197 -2.946743 -1.347219 -10.653574 -2.103882 -2.424300 0.000000 -27.264000
5.290085 17.419003 0.599489 2.292051 -75.465606 6.786357 -10.950056 1.835962 1.738093 -5.785522 9.411602 -11.850223 -2.663467 -1.259753 -4.066291 -0.313119 -1.720202 6.863210 -0.022400 -0.000001 -31.502800 9.529345 -2.354499 1.321000 7.200518 -6.958275 -6.035062 2.036595 1.469877 -3.016635 -1.350144 -10.575722 -2.017874 -2.404200 -0.000000 -27.406100
5.291799 17.418139 0.612129 2.296723 -75.712213 6.716176 -10.961448 1.853784 1.723636 -5.810457 9.532466 -11.750707 -2.660603 -1.259084 -4.082682 -0.303549 -1.640601 6.787089 -0.005100 -0.000000 -31.477300 9.525710 -2.353905 1.335300 7.139656 -6.913465 -5.956332 2.039580 1.473310 -3.084560 -1.347399 -10.477858 -1.916541 -2.385499 -0.000000 -27.583400
5.292832 17.418032 0.625526 2.340843 -75.965620 6.629538 -10.969558 1.876802 1.719217 -5.859269 9.663586 -11.685130 -2.662739 -1.260947 -4.108765 -0.296369 -1.579403 6.727613 0.008200 0.000000 -31.433800 9.526135 -2.354552 1.362233 7.068666 -6.873153 -5.922762 2.043222 1.478364 -3.146172 -1.339593 -10.368457 -1.807250 -2.369600 -0.000000 -27.786100
5.293223 17.418609 0.639556 2.426249 -76.222958 6.526782 -10.974825 1.904128 1.723202 -5.930264 9.798385 -11.653868 -2.669230 -1.264509 -4.141858 -0.291266 -1.536031 6.682053 0.017600 0.000001 -31.371600 9.529608 -2.354319 1.398564 6.988836 -6.834038 -5.932043 2.046913 1.485156 -3.199359 -1.328006 -10.256150 -1.695479 -2.357200 0.000000 -28.001200
5.293108 17.419656 0.654015 2.552251 -76.480761 6.408546 -10.977521 1.934461 1.733821 -6.020109 9.930172 -11.654637 -2.679207 -1.269153 -4.178554 -0.287786 -1.507549 6.646154 0.023900 -0.000000 -31.294000 9.535306 -2.351893 1.441526 6.901820 -6.792634 -5.979523 2.050111 1.493645 -3.243596 -1.314035 -10.148141 -1.587551 -2.348500 0.000000 -28.217900
5.292617 17.420923 0.668752 2.715169 -76.736364 6.278074 -10.977890 1.966318 1.749334 -6.124951 10.052473 -11.685138 -2.691714 -1.274372 -4.214642 -0.285387 -1.489936 6.614290 0.027900 -0.000000 -31.204000 9.542448 -2.346386 1.488626 6.809566 -6.745664 -6.059631 2.052511 1.503792 -3.279776 -1.299164 -10.049374 -1.488156 -2.343099 0.000000 -28.427300
5.291933 17.422173 0.683568 2.907586 -76.989600 6.140925 -10.976333 1.998217 1.767885 -6.240305 10.160158 -11.742537 -2.705690 -1.279671 -4.246120 -0.283453 -1.478487 6.580483 0.030500 0.000000 -31.106400 9.550102 -2.337023 1.537575 6.714508 -6.689575 -6.166430 2.054016 1.515605 -3.309445 -1.284729 -9.963211 -1.401360 -2.340300 -0.000000 -28.623600
5.291172 17.423208 0.698304 3.121757 -77.239776 6.003996 -10.973094 2.028990 1.788370 -6.362383 10.249462 -11.826303 -2.720297 -1.284775 -4.269306 -0.281406 -1.468226 6.539806 0.033000 0.000000 -31.004800 9.557565 -2.323479 1.587284 6.619164 -6.621234 -6.296247 2.054738 1.529304 -3.335524 -1.271820 -9.891274 -1.328964 -2.339501 -0.000000 -28.802800
5.290406 17.423807 0.712885 3.346516 -77.488492 5.873703 -10.968963 2.057842 1.808653 -6.484864 10.319514 -11.925586 -2.734365 -1.289377 -4.286155 -0.278705 -1.454582 6.489407 0.036099 -0.000000 -30.904000 9.564082 -2.305724 1.634750 6.525457 -6.540842 -6.440057 2.054933 1.544060 -3.355103 -1.259890 -9.831167 -1.273135 -2.339900 0.000000 -28.966300
5.289762 17.423852 0.727204 3.573915 -77.736380 5.753951 -10.964358 2.084214 1.827546 -6.604569 10.371301 -12.035863 -2.747360 -1.293344 -4.297503 -0.275110 -1.435616 6.428072 0.040300 -0.000000 -30.805800 9.569225 -2.283701 1.678663 6.434862 -6.448816 -6.594534 2.054910 1.559502 -3.366748 -1.248437 -9.780301 -1.235374 -2.340800 -0.000001 -29.117900
5.289100 17.423353 0.741135 3.798716 -77.981465 5.651590 -10.958985 2.108222 1.846622 -6.721955 10.405171 -12.163638 -2.759564 -1.297021 -4.300495 -0.270681 -1.411416 6.354365 0.045501 0.000000 -30.714001 9.573119 -2.258289 1.721007 6.348915 -6.346397 -6.762844 2.055192 1.576214 -3.373786 -1.237682 -9.736277 -1.213398 -2.341700 -0.000000 -29.260900
5.288266 17.422301 0.754661 4.016842 -78.223441 5.567708 -10.953353 2.130230 1.865253 -6.834306 10.425163 -12.300093 -2.770812 -1.300587 -4.301355 -0.265544 -1.382773 6.271553 0.051700 -0.000000 -30.629500 9.575741 -2.230192 1.760415 6.268357 -6.238197 -6.941850 2.056145 1.593142 -3.369741 -1.225509 -9.693965 -1.207657 -2.342600 -0.000000 -29.403400
5.287292 17.420802 0.767753 4.221888 -78.460107 5.503382 -10.947622 2.150588 1.883635 -6.941782 10.435589 -12.442158 -2.781292 -1.304194 -4.303757 -0.260053 -1.352414 6.183700 0.058099 0.000000 -30.551900 9.577298 -2.200046 1.796633 6.193298 -6.129502 -7.131963 2.058127 1.609526 -3.349666 -1.210293 -9.649080 -1.217404 -2.343500 0.000000 -29.552200
5.285876 17.418999 0.780381 4.416359 -78.688878 5.458104 -10.941490 2.170426 1.903908 -7.046240 10.438929 -12.592292 -2.791687 -1.308424 -4.310081 -0.254629 -1.323117 6.094002 0.064300 -0.000000 -30.480200 9.578374 -2.169057 1.831345 6.124155 -6.025995 -7.337472 2.061600 1.625409 -3.311870 -1.190977 -9.597507 -1.240752 -2.344699 0.000000 -29.712800
5.284051 17.416984 0.792486 4.601605 -78.909268 5.420985 -10.935664 2.190483 1.923752 -7.146304 10.443473 -12.734589 -2.801955 -1.313069 -4.330154 -0.249734 -1.299019 6.010322 0.069300 -0.000000 -30.413500 9.579306 -2.137248 1.861208 6.059045 -5.934017 -7.552647 2.066276 1.638581 -3.242101 -1.164273 -9.535130 -1.280599 -2.347200 0.000000 -29.892800
5.281517 17.415010 0.804089 4.780468 -79.117850 5.394760 -10.929184 2.212167 1.947769 -7.246836 10.447245 -12.882287 -2.813049 -1.318924 -4.361058 -0.245653 -1.280795 5.934174 0.073100 0.000000 -30.348100 9.580860 -2.106173 1.890653 5.999069 -5.857963 -7.787281 2.072799 1.650365 -3.146398 -1.130659 -9.459757 -1.331608 -2.350600 0.000000 -30.091299
5.278430 17.413102 0.815136 4.955397 -79.316201 5.366385 -10.922844 2.236035 1.972658 -7.346327 10.459005 -13.018904 -2.824800 -1.325501 -4.410147 -0.242735 -1.272189 5.871477 0.074900 -0.000001 -30.284200 9.583229 -2.075430 1.916030 5.941965 -5.800795 -8.033662 2.080473 1.658547 -3.010424 -1.087684 -9.370148 -1.398378 -2.356400 -0.000000 -30.313100
5.274595 17.411421 0.825594 5.131578 -79.503766 5.334559 -10.915935 2.263014 2.001462 -7.447680 10.476400 -13.153106 -2.837691 -1.333285 -4.473539 -0.240930 -1.271306 5.821625 0.075200 -0.000000 -30.219100 9.587000 -2.046153 1.940465 5.888108 -5.764702 -8.296624 2.089699 1.664245 -2.841243 -1.036179 -9.264173 -1.476302 -2.363600 -0.000000 -30.553700
5.270057 17.409993 0.835448 5.312706 -79.682819 5.292459 -10.908547 2.293374 2.033382 -7.551025 10.502085 -13.281389 -2.851678 -1.342113 -4.550074 -0.240144 -1.277183 5.784759 0.074000 -0.000000 -30.152500 9.592381 -2.018563 1.963622 5.836714 -5.750243 -8.572486 2.100258 1.667258 -2.639230 -0.976730 -9.141209 -1.565068 -2.371700 -0.000000 -30.809700
5.264928 17.408782 0.844655 5.499546 -79.856465 5.236836 -10.900823 2.326785 2.067338 -7.655638 10.538093 -13.402442 -2.866575 -1.351762 -4.636207 -0.240133 -1.287793 5.758703 0.072000 0.000000 -30.085000 9.599262 -1.992869 1.985770 5.787554 -5.754061 -8.857782 2.111863 1.667516 -2.406818 -0.910144 -9.002120 -1.663340 -2.380300 0.000000 -31.076499
5.259204 17.407774 0.853172 5.695297 -80.028185 5.166165 -10.892470 2.362965 2.103987 -7.761638 10.581779 -13.520210 -2.882189 -1.362247 -4.725233 -0.240366 -1.297831 5.738778 0.070200 -0.000000 -30.017200 9.607694 -1.969657 2.008381 5.740970 -5.775411 -9.149671 2.124908 1.666297 -2.157023 -0.839098 -8.844410 -1.766290 -2.386800 -0.000000 -31.345500
5.253186 17.406849 0.860973 5.894570 -80.203387 5.080271 -10.884212 2.400504 2.139937 -7.865551 10.637582 -13.629156 -2.897909 -1.372962 -4.813394 -0.240497 -1.305418 5.721195 0.069000 -0.000000 -29.951700 9.616859 -1.948648 2.030745 5.696954 -5.804831 -9.441115 2.138558 1.662870 -1.889308 -0.764614 -8.673486 -1.875066 -2.391701 -0.000000 -31.615700
5.246874 17.405914 0.868087 6.096007 -80.386959 4.982691 -10.876245 2.438473 2.174554 -7.965375 10.704686 -13.731306 -2.913317 -1.383796 -4.894846 -0.239933 -1.305299 5.700517 0.069300 0.000001 -29.890601 9.626169 -1.930288 2.054354 5.656395 -5.835096 -9.728100 2.152745 1.658062 -1.613738 -0.689347 -8.491556 -1.986389 -2.394100 -0.000000 -31.882299
5.240305 17.404909 0.874515 6.296557 -80.583172 4.878597 -10.867310 2.475274 2.207748 -8.061151 10.777721 -13.860873 -2.928000 -1.391551 -4.902109 -0.237255 -1.291246 5.635981 0.072699 -0.000000 -29.835900 9.635291 -1.915054 2.081244 5.620163 -5.865064 -10.007287 2.168404 1.653915 -1.349588 -0.616233 -8.294530 -2.092526 -2.390400 -0.000001 -32.136200
5.233604 17.403736 0.880292 6.492500 -80.795885 4.772030 -10.859135 2.510791 2.239123 -8.149304 10.858763 -13.985603 -2.941526 -1.399527 -4.899635 -0.232867 -1.259826 5.562459 0.079700 -0.000000 -29.789500 9.643365 -1.903010 2.111691 5.589030 -5.886173 -10.274294 2.185172 1.650545 -1.102338 -0.546983 -8.087117 -2.191610 -2.380800 0.000000 -32.376600
